<svg xmlns="http://www.w3.org/2000/svg" width="32" height="32" viewBox="0 0 32 32"><g><g><path fill="#fff" d="M32 16c0 8.835-7.182 15.998-16.04 15.998C7.104 31.998-.077 24.835-.077 16c0-8.837 7.181-16 16.039-16 8.857 0 16.038 7.163 16.038 16zm-8.078-.064c.591-.828 1.228-1.623 1.825-2.446.558-.77 1.128-1.536 1.421-2.458.187-.586.022-.845-.581-.948a1.924 1.924 0 0 0-.317-.018l-3.574-.005c-.44-.006-.684.185-.84.575-.21.526-.426 1.05-.677 1.56-.568 1.15-1.202 2.262-2.092 3.205-.197.207-.413.47-.741.362-.41-.149-.531-.824-.524-1.051l-.004-4.115c-.08-.588-.21-.85-.795-.965H13.31c-.496 0-.744.192-1.009.5-.152.18-.198.295.116.355.615.116.963.515 1.055 1.13.148.986.137 1.974.052 2.964a2.745 2.745 0 0 1-.19.846c-.179.424-.469.51-.85.25-.344-.237-.587-.57-.824-.904-.89-1.256-1.6-2.609-2.18-4.03-.168-.412-.457-.661-.893-.668a89.156 89.156 0 0 0-3.217.002c-.646.01-.838.323-.575.907 1.168 2.591 2.468 5.112 4.165 7.407.871 1.177 1.872 2.217 3.164 2.954 1.465.835 3.041 1.087 4.702 1.01.777-.037 1.011-.239 1.047-1.012.025-.529.084-1.055.346-1.53.257-.467.646-.556 1.094-.265.224.146.413.33.591.525.438.477.86.97 1.314 1.431.57.579 1.245.92 2.094.85l3.285.001c.53-.035.804-.682.5-1.271-.213-.414-.494-.781-.79-1.136-.672-.805-1.463-1.49-2.21-2.218-.675-.657-.718-1.038-.175-1.794z"/></g></g></svg>