<svg xmlns="http://www.w3.org/2000/svg" width="32" height="32" viewBox="0 0 32 32"><g><g><path fill="#fff" d="M32.08 16c0 8.835-7.183 16-16.04 16C7.182 32 0 24.834 0 16 0 7.163 7.182-.001 16.04-.001c8.857 0 16.04 7.162 16.04 16zM12.03 9.75H8.02v14h4.01zm0-2.735a1.881 1.881 0 0 0-1.881-1.876 1.877 1.877 0 0 0 0 3.752c1.039 0 1.88-.84 1.88-1.876zm14.034 8.2c0-4.687-2.71-5.464-4.01-5.464a6.72 6.72 0 0 0-4.01 1.336V9.75h-4.01v14h4.01v-8.656s.4-1.723 2.471-1.723c1.25 0 1.54.709 1.54 1.723v8.656h4.01z"/></g></g></svg>