<svg xmlns="http://www.w3.org/2000/svg" width="21" height="21" viewBox="0 0 21 21"><g><g><path fill="#01983b" d="M20.493 10.495c0 5.8-4.588 10.504-10.247 10.504S0 16.296 0 10.495C0 4.695 4.587-.009 10.246-.009s10.247 4.702 10.247 10.504zM7.684 6.392H5.123v9.19h2.561zm0-1.795c0-.679-.537-1.23-1.201-1.232-.662 0-1.2.552-1.2 1.232 0 .68.536 1.231 1.2 1.231.664 0 1.201-.551 1.201-1.231zM16.65 9.98c0-3.077-1.73-3.587-2.561-3.587-1.281 0-2.196.59-2.562.877v-.878H8.965v9.19h2.562V9.9s.255-1.131 1.578-1.131c.799 0 .984.465.984 1.131v5.683h2.561z"/></g></g></svg>