<svg xmlns="http://www.w3.org/2000/svg" width="19" height="19" viewBox="0 0 19 19"><g><g><path fill="#2c2783" d="M7.962 7.101H11.5v.888H7.96v3.552h-.884V7.989H3.538v-.888h3.54V3.55h.884zm10.616 11.541c-.53.444-1.327.444-1.77 0l-4.954-4.972c-1.238.889-2.742 1.42-4.334 1.42C3.362 15.09 0 11.719 0 7.546S3.362 0 7.52 0c4.157 0 7.52 3.373 7.52 7.546a7.51 7.51 0 0 1-1.416 4.35l4.954 4.972c.53.532.53 1.243 0 1.775zM13.27 7.545a5.749 5.749 0 0 0-5.75-5.77 5.749 5.749 0 0 0-5.75 5.77 5.749 5.749 0 0 0 5.75 5.77 5.749 5.749 0 0 0 5.75-5.77z"/></g></g></svg>