<svg xmlns="http://www.w3.org/2000/svg" width="21" height="21" viewBox="0 0 21 21"><g><g><path fill="#01983b" d="M20.996 10.495c0 5.802-4.588 10.504-10.247 10.504-5.658 0-10.246-4.702-10.246-10.504 0-5.8 4.588-10.504 10.246-10.504 5.659 0 10.247 4.703 10.247 10.504zm-5.16-.041c.377-.544.784-1.065 1.165-1.606.357-.505.72-1.009.908-1.614.12-.385.014-.555-.371-.622a1.169 1.169 0 0 0-.202-.012l-2.284-.003c-.281-.005-.437.121-.536.377-.134.345-.273.69-.433 1.024-.363.756-.768 1.486-1.337 2.104-.125.136-.263.309-.473.238-.262-.098-.34-.54-.335-.69l-.002-2.702c-.05-.386-.134-.558-.508-.633H9.056c-.317 0-.475.126-.644.329-.098.117-.127.193.073.232.394.077.616.338.674.743.095.646.088 1.296.034 1.945a1.84 1.84 0 0 1-.121.555c-.115.279-.3.335-.543.164-.22-.155-.375-.374-.527-.593a13.203 13.203 0 0 1-1.393-2.646c-.107-.27-.292-.434-.57-.438a55.22 55.22 0 0 0-2.056 0c-.412.008-.535.214-.367.596.746 1.702 1.577 3.357 2.66 4.863.558.773 1.197 1.456 2.022 1.94.936.548 1.943.714 3.004.662.497-.023.646-.156.669-.664.016-.347.054-.692.221-1.004.164-.307.413-.365.699-.174.143.096.264.217.378.345.28.313.549.636.84.94.363.38.794.603 1.336.557h2.1c.337-.022.513-.447.319-.834a4.135 4.135 0 0 0-.506-.746c-.428-.528-.934-.977-1.411-1.455-.431-.432-.459-.682-.112-1.178z"/></g></g></svg>